<svg xmlns="http://www.w3.org/2000/svg" width="90" height="90" style="shape-rendering:geometricPrecision;text-rendering:geometricPrecision;image-rendering:optimizeQuality;clip-rule:evenodd"><path style="opacity:.972" d="M43.5 7.5c2.49.329 4.657 1.329 6.5 3 .5 9.327.666 18.66.5 28 9.34-.166 18.673 0 28 .5 4 3.667 4 7.333 0 11-9.327.5-18.66.666-28 .5.166 9.34 0 18.673-.5 28-3.667 4-7.333 4-11 0-.5-9.327-.666-18.66-.5-28-9.34.166-18.673 0-28-.5-4-3.667-4-7.333 0-11 9.327-.5 18.66-.666 28-.5-.166-9.34 0-18.673.5-28 1.409-1.281 2.909-2.281 4.5-3z"/></svg>